<svg viewBox="0 0 500 500" xmlns="http://www.w3.org/2000/svg"> <rect x="25" y="25" width="450" height="450" style="fill: #00acee;" rx="59.951" ry="59.951" /> <path style=" fill: #ffffff;" d="M 415.053 122.613 C 407.963 140.245 398.363 152.606 386.252 159.696 C 396.292 158.88 408.967 155.555 424.277 149.719 C 413.798 164.904 402.316 176.826 389.829 185.485 C 390.253 272.315 351.63 335.772 273.958 375.859 C 211.538 401.226 149.689 396.38 88.409 361.322 C 130.022 363.46 164.225 353.342 191.017 330.968 C 157.384 329.828 135.438 314.152 125.177 283.939 C 135.865 285.079 146.554 284.509 157.242 282.229 C 121.757 273.108 102.803 250.022 100.38 212.969 C 110.071 218.669 120.331 221.805 131.162 222.375 C 99.952 195.013 93.254 164.23 111.068 130.028 C 152.254 177.199 199.995 201.283 254.292 202.281 C 246.454 170.786 257.997 145.276 288.922 125.752 C 320.417 110.503 348.206 114.921 372.29 139.006 C 388.251 135.586 402.506 130.121 415.053 122.613 Z" /></svg>