<svg data-name="Layer 1" viewBox="0 0 926.63 785.99" xmlns="http://www.w3.org/2000/svg">
<path transform="translate(-136.68 -57.003)" d="m1030.9 386.06c-46.34 59.26-133.78 72.83-206.13 52.19a335.51 335.51 0 0 1-68.1-28.35c-12.54-6.81-24.78-14.28-36.77-22.24-2.9502-1.95-5.8999-3.93-8.8198-5.95q-2.9853-2.04-5.9502-4.1299c-24.76-17.42-48.55-36.53-71.94-55.53-58.39-47.43-118.38-96.32-190.12-118.95-14.78-4.66-33.9-6.84-43.04 5.68-7.9297 10.87-3.0898 26.26 3.6201 37.92 24.89 43.19 70.07 70.46 115.29 91.43 45.22 20.97 93.12 37.96 132.43 68.62 39.31 30.66 69.32 79.39 61.28 128.58-6.9302 42.39-41.54 76.83-81.78 91.84-40.24 15-85.12 12.91-126.95 3.17-41.83-9.75-81.54-26.76-121.91-41.42-24.34-8.85-56.16-14.97-72.31 5.28-13.64 17.11-5.7998 44.1 10.81 58.34s39.09 19.01 60.54 23.29q99.9 19.95 199.8 39.89c20.43 4.07 41.34 8.33 59.14 19.17 17.8 10.83 32.16 29.75 31.65 50.58-0.51025 20.53-15.54 38.67-33.96 47.76-18.41 9.08-39.67 10.48-60.18 9.5-76.86-3.68-297.21-125.79-350.06-141.4-33.96-10.02-71.09-24.74-85.41-57.12-17.83-40.31 11.51-89.08 51.56-107.49 40.04-18.42 86.46-14.34 130.1-8.14 43.64 6.2 88.72 14.09 131.2 2.31 42.479-11.78 81.4-50.18 77.21-94.06-3.6504-38.18-38.04-66.95-74.23-79.63-28.33-9.93-58.47-12.63-88.229-17.1-8.2602-1.23-16.49-2.61-24.64-4.31a307.09 307.09 0 0 1-60.75-19.5 312.92 312.92 0 0 1-58.04-33.31 305.26 305.26 0 0 1-40.32-35.01q-2.8352-2.9399-5.6104-6.01c-1.7598-1.96-3.5-3.96-5.1997-6-22.12-26.43-38.46-58.98-33.56-92.52 4.8896-33.45 30.96-61.3 62-74.68 17.94-7.73 37.29-11.19 56.88-11.69a233.8 233.8 0 0 1 42.78 3.08c65.41 10.46 125.35 42.24 181.96 76.65 56.6 34.41 111.76 72.18 173.29 96.71 61.53 24.54 131.57 34.93 193.99 12.74 62.42-22.18 113.7-82.7 110.65-148.87 41.4 35.65 76.58 80.46 92.16 132.82 15.58 52.36 9.3198 112.82-24.33 155.86z" fill="#3f3d56"/>
<circle cx="595.91" cy="253.39" r="7.2777" fill="#6c63ff"/>
<circle cx="852.91" cy="157.39" r="11.252" fill="#ff6584"/>
<circle cx="114.91" cy="511.39" r="4.1575" fill="#ff6584"/>
<path transform="translate(-136.68 -57.003)" d="m370.93 329.4a44.43 44.43 0 0 1-1.2998 10.7c-8.2602-1.23-16.49-2.61-24.64-4.31a307.09 307.09 0 0 1-60.75-19.5 44.337 44.337 0 0 1 86.69 13.11z" fill="#ff6584"/>
<circle cx="780.91" cy="230.39" r="4.252" fill="#f0f0f0"/>
<circle cx="391.91" cy="698.39" r="4.252" fill="#f0f0f0"/>
<circle cx="452.91" cy="757.39" r="4.252" fill="#f0f0f0"/>
<circle cx="75.911" cy="589.39" r="4.252" fill="#f0f0f0"/>
<circle cx="284.91" cy="510.39" r="4.252" fill="#f0f0f0"/>
<circle cx="263.91" cy="88.394" r="4.252" fill="#f0f0f0"/>
<circle cx="520.91" cy="421.39" r="4.252" fill="#f0f0f0"/>
<circle cx="552.91" cy="495.39" r="4.252" fill="#f0f0f0"/>
<path transform="translate(-136.68 -57.003)" d="m291.53 220.73q9.0747-2.7388 17.362-5.9355c33.96-13.117 53.438-30.911 53.438-48.82s-19.478-35.703-53.438-48.82q-5.0376-1.9457-10.386-3.7234a136.34 136.34 0 0 1-6.9761 107.3z" fill="none"/>
<path transform="translate(-136.68 -57.003)" d="m306.33 158.97a135.44 135.44 0 0 1-14.8 61.76q-1.9351 3.78-4.1001 7.43a136.43 136.43 0 0 1-61.23 54.82 305.27 305.27 0 0 1-40.32-35.01q-2.8352-2.94-5.6104-6.01c-1.7598-1.96-3.5-3.96-5.1997-6-22.12-26.43-38.46-58.98-33.56-92.52 4.8896-33.45 30.96-61.3 62-74.68 17.94-7.73 37.29-11.19 56.88-11.69a136.13 136.13 0 0 1 35.33 49.16c1 2.37 1.9199 4.77 2.79 7.2a135.76 135.76 0 0 1 7.8199 45.54z" fill="#6c63ff"/>
<path transform="translate(-136.68 -57.003)" d="m368.33 165.97c0 20.83-20.34 40.15-57.28 54.42-7.3901 2.86-15.3 5.45-23.62 7.77-31.14 8.68-68.2 13.49-107.16 13.8-1.7598-1.96-3.5-3.96-5.1997-6 0.41992 0.01 0.83984 0.01 1.2598 0.01 42.31 0 82.45-5.36 115.2-15.24 6.0498-1.83 11.85-3.81 17.36-5.94 33.96-13.11 53.44-30.91 53.44-48.82s-19.48-35.7-53.44-48.82q-5.0398-1.95-10.38-3.72c-0.87011-2.43-1.79-4.83-2.79-7.2q7.9798 2.49 15.33 5.32c36.94 14.27 57.28 33.6 57.28 54.42z" fill="#e4e4e4"/>
<circle cx="45.911" cy="30.394" r="4.252" fill="#f0f0f0"/>
<circle cx="134.91" cy="57.394" r="4.252" fill="#f0f0f0"/>
<circle cx="88.911" cy="100.39" r="41.348" fill="#f0f0f0"/>
<path transform="translate(-136.68 -57.003)" d="m989.2 376.24c-9.2803 2.74-29.74 4.76-52.24 6-22.49 1.23-47.16 1.77-71.52 2.29q-63.959 1.3801-127.91 2.77-8.7905 0.195-17.64 0.36c-2.9502-1.95-5.8999-3.93-8.8198-5.95 5.23 0.03 10.46 0 15.65-0.1 22.17-0.44 40.94-2.17 62.32-2.99 32.9-1.27 68.42-0.27 102.71 0.24 34.29 0.52002 73.36 0.33002 97.45-2.62z" fill="#f0f0f0" opacity=".3"/>
<path transform="translate(-136.68 -57.003)" d="m334.77 691.47-135.92-113.23 132.04 117.77a3.1509 3.1509 0 1 0 3.876-4.5354z" fill="#f0f0f0" opacity=".3"/>
<circle cx="94.911" cy="201.39" r="4.252" fill="#f0f0f0"/>
<polygon points="452.02 694.07 469.6 694.07 477.97 626.24 452.01 626.24" fill="#ffb6b6"/>
<path transform="translate(-136.68 -57.003)" d="m584.21 745.33 4.9503-2e-4 19.327-7.8598 10.359 7.8586h0.0014a22.074 22.074 0 0 1 22.073 22.072v0.71727l-56.709 0.0021z" fill="#2f2e41"/>
<polygon points="320.31 694.07 302.72 694.07 294.35 626.24 320.31 626.24" fill="#ffb6b6"/>
<path transform="translate(-136.68 -57.003)" d="m461.48 768.12-56.709-0.0021v-0.71727a22.074 22.074 0 0 1 22.073-22.072h0.0014l10.359-7.8586 19.327 7.8598 4.9503 2e-4z" fill="#2f2e41"/>
<path transform="translate(-136.68 -57.003)" d="m520.01 231.19-17.808 13.56-47.305 12.528s16.95 118.96 8.9503 126.96-0.785 8.215-2.3925 18.608-8.0134 37.831-8.0134 37.831h141.19s1.1377-17.052-5.8221-20.745 6.4158-20.929 0.728-23.811 2.3122-27.882 2.3122-27.882l17.337-81.85-46.114-36.08-7.0132-16.898z" fill="#6c63ff"/>
<circle cx="405.55" cy="274.33" r="6.1614" fill="#f2f2f2"/>
<path transform="translate(-136.68 -57.003)" d="m453.44 440.68-5.8222 149.92s-25.139 110.73-20.772 113.64 6.2165 20.269 6.2165 20.269l24.744 2.9111s0-11.644 5.8222-16.011 59.677-209.6 59.677-209.6l52.54 198.43s1.3154 11.169 5.682 11.169 5.8222 16.011 5.8222 16.011h24.744v-16.011s11.118-3.525 6.7516-15.169-24.218-255.56-24.218-255.56z" fill="#2f2e41"/>
<circle cx="401.82" cy="135.42" r="29.839" fill="#ffb6b6"/>
<polygon points="452.85 269.41 458.67 273.78 461.58 253.4" opacity=".1" style="isolation:isolate"/>
<path transform="translate(-136.68 -57.003)" d="m457.69 257.16s-7.2777-1.4555-11.644 11.644-20.378 62.588-20.378 71.322 99.71 47.267 99.71 47.267l-10.375-36.396-45.669-23.971z" fill="#6c63ff"/>
<circle cx="393.32" cy="308" r="17" fill="#ffb6b6"/>
<polygon points="331.32 252 332.65 270.03 374.88 292.19 337.32 267" opacity=".1" style="isolation:isolate"/>
<path transform="translate(-136.68 -57.003)" d="m569.52 311.57h-0.54786v-15.008a8.6864 8.6864 0 0 0-8.6863-8.6864h-31.797a8.6864 8.6864 0 0 0-8.6864 8.6864v82.337a8.6864 8.6864 0 0 0 8.6863 8.6864h31.797a8.6864 8.6864 0 0 0 8.6864-8.6864v-56.645h0.54786z" fill="#f0f0f0"/>
<path transform="translate(-136.68 -57.003)" d="m609.18 286.39s4.3666 2.9111 7.2777 16.011 21.833 62.588 14.555 74.233-9.4261 24.072-34.17 6.6058l-34.24-31.35 24.744-23.289 10.189 7.2777z" fill="#6c63ff"/>
<circle cx="408.09" cy="260.29" r="7.2777" fill="#6c63ff"/>
<circle cx="429.16" cy="276.24" r="17" fill="#ffb6b6"/>
<polygon points="330.51 306.41 379.32 328 329.16 318.19" opacity=".1" style="isolation:isolate"/>
<path transform="translate(-136.68 -57.003)" d="m508.4 198.36-4.0969-15.592c-1.069-4.0682-2.1468-8.2188-1.9067-12.418s2.0215-8.5331 5.5595-10.808 8.9389-1.7376 11.216 1.7993c0.43269-5.6477 5.5705-9.9919 11.022-11.531s11.239-0.93036 16.897-0.67071 11.631 0.07839 16.514-2.7913a5.1124 5.1124 0 0 1-2.289 6.0413 4.9627 4.9627 0 0 0 5.9953-3.162 12.88 12.88 0 0 1-3.3812 8.8453 9.4745 9.4745 0 0 1 12.246 3.4676c2.4922 4.3207 1.0958 9.747-0.36235 14.517l-7.4838 24.482c-1.1349-3.7218-1.349-7.651-1.9561-11.494s-1.6872-7.7681-4.2243-10.718-6.8464-4.6585-10.451-3.1938c-2.0225 0.82183-3.5646 2.4891-5.3905 3.6857-3.7465 2.4552-8.512 2.8073-12.963 2.3077s-8.789-1.7671-13.24-2.2734c-2.7866-0.317-5.8964-0.23309-7.9989 1.623a10.281 10.281 0 0 0-2.7383 5.4672 43.486 43.486 0 0 0-1.158 12.541" fill="#2f2e41"/>
</svg>
