<svg width="300.71" height="280.63" data-name="Layer 1" viewBox="0 0 892.71 705.63" xmlns="http://www.w3.org/2000/svg">
<polygon points="561.34 643.12 547.84 643.12 541.42 591.06 561.34 591.06" fill="#9e616a"/>
<path transform="translate(-153.65 -97.187)" d="m718.42 753.38-43.513-0.00161v-0.55037a16.937 16.937 0 0 1 16.937-16.936h0.00107l26.576 0.00108z" fill="#2f2e41"/>
<polygon points="512.9 643.12 499.41 643.12 492.99 591.06 512.9 591.06" fill="#9e616a"/>
<path transform="translate(-153.65 -97.187)" d="m669.99 753.38-43.513-0.00161v-0.55037a16.937 16.937 0 0 1 16.937-16.936h0.00108l26.576 0.00108z" fill="#2f2e41"/>
<path transform="translate(-153.65 -97.187)" d="m509.38 375.56a12.544 12.544 0 0 0 19.19 1.315l26.702 10.427 10.294-14.681-37.916-14.196a12.612 12.612 0 0 0-18.271 17.135z" fill="#9e616a"/>
<polygon points="512.73 367.33 477.58 378.8 489.32 627.78 516.45 628.45 530.34 452.87 533.49 627.76 567.04 629.61 579.41 367.33" fill="#2f2e41"/>
<path transform="translate(-153.65 -97.187)" d="m642.66 317.75 90.233-19.605 10.034 77.696-8.3553 37.124 3.3467 56.417s-71.349 35.511-106.69 6.6085c0 0 28.409-74.619 11.942-109.55z" fill="#e4e4e4"/>
<path transform="translate(-153.65 -97.187)" d="m658.28 328.73-15.627-10.99s-0.92307-1.2784-13.946 13.946-39.44 39.44-39.44 39.44l-44.03-16.511-8.0216 29.637 51.172 23.847 72.447-48.383z" fill="#e4e4e4"/>
<path transform="translate(-153.65 -97.187)" d="m737.93 498.5a12.544 12.544 0 0 0 4.8671-18.609l15.219-24.292-12.507-12.849-21.011 34.607a12.612 12.612 0 0 0 13.431 21.144z" fill="#9e616a"/>
<path transform="translate(-153.65 -97.187)" d="m718.82 313.45 14.074-15.306s15.681-5.461 28.494 22.758 27.122 85.457 27.122 85.457l-33.457 64.445-25.983-11.61 25.983-53.291-27.496-39.465z" fill="#e4e4e4"/>
<circle transform="translate(-197.83 262.02) rotate(-28.663)" cx="680.9" cy="266.07" r="29.29" fill="#9e616a"/>
<path transform="translate(-153.65 -97.187)" d="m705.6 239.87c-1.3856-5.8161-6.2344-10.407-11.812-12.559s-11.79-2.1319-17.684-1.1304c-9.7842 1.6624-18.92 5.8818-27.923 10.059l6.9389 3.3197-9.5754 0.54935 7.399 3.8264a12.979 12.979 0 0 0-4.8064 13.158c0.38093 1.5857 1.3987 3.3333 3.0286 3.388 1.9704 0.06619 2.9989-2.23 4.3782-3.6386 1.8349-1.8739 4.733-2.2898 7.3318-1.9367s5.0639 1.353 7.6277 1.9058a22.847 22.847 0 0 0 18.683-4.3287l9.2267 22.217a5.4656 5.4656 0 1 1 10.387 1.7514c3.9943-6.0244 7.2073-12.869 7.3175-20.096s-3.4744-14.841-10.036-17.874" fill="#2f2e41"/>
<path transform="translate(-153.65 -97.187)" d="m366.16 688.68-12.476 19.615 7.2672-25.535c-15.344-16.01-36.586-27.723-36.586-27.723s-26.156 42.987-19.116 69.43 25.218 31.491 44.609 26.328c19.391-5.1625 32.653-18.58 25.613-45.023-1.567-5.8856-4.9707-11.664-9.3121-17.092z" fill="#f2f2f2"/>
<path transform="translate(-153.65 -97.187)" d="M349.64869,710.24978l.347,1.30339c3.95606,15.17124,4.548,27.67259,1.75031,37.33113-.03832.14149-.08483.27824-.1232.41975l-.65241-.19252-.62487-.193c3.16916-10.46918,1.75475-23.6982-1.69241-36.93192-.10692-.42761-.21555-.86164-.33711-1.29223-1.50875-5.58924-3.35725-11.15706-5.3693-16.50864-.1521-.41559-.31236-.83587-.47263-1.25615-2.69224-7.05-5.63414-13.688-8.35963-19.40932-.19081-.40527-.38807-.80879-.58362-1.20589-4.653-9.665-8.5974-16.51293-9.4837-18.0252-.10485-.18629-.16634-.28737-.17967-.31145l.56662-.33743.00474-.00818.57307-.33915c.01334.02412.22094.36272.58368.9986,1.37069,2.37137,5.01119,8.83031,9.20862,17.51106.18737.39236.38464.79592.57544,1.20116,2.21666,4.64066,4.56687,9.86075,6.80211,15.40162q.84559,2.08628,1.61772,4.12987c.16668.41857.327.83886.479,1.25444Q347.54219,702.46691,349.64869,710.24978Z" fill="#fff"/>
<path transform="translate(-153.65 -97.187)" d="m334.8 671.8c-0.41684 0.17318-0.84015 0.34808-1.2734 0.51175a36.835 36.835 0 0 1-3.5894 1.156 35.833 35.833 0 0 1-15.87 0.60426c-0.18 0.41411-0.3599 0.82826-0.5446 1.2506a37.16 37.16 0 0 0 16.758-0.5643 38.111 38.111 0 0 0 3.8295-1.2406c0.42674-0.162 0.85005-0.33688 1.2652-0.51648a36.847 36.847 0 0 0 9.4621-5.8566q-0.5579-0.42153-1.0913-0.82887a35.71 35.71 0 0 1-8.9462 5.4843z" fill="#fff"/>
<path transform="translate(-153.65 -97.187)" d="M343.79945,692.53531q-.65754.21649-1.32538.39431c-.1338.04253-.27573.08032-.41125.1164a36.023,36.023,0,0,1-32.5453-7.31817c-.15673.44938-.3135.89882-.462,1.35295a37.3606,37.3606,0,0,0,33.35092,7.25573c.18069-.0481.36134-.0962.54031-.15076.44993-.1267.89171-.25815,1.33179-.396a37.1629,37.1629,0,0,0,17.34529-11.80407c-.30783-.3257-.61567-.65145-.93-.97544A35.77551,35.77551,0,0,1,343.79945,692.53531Z" fill="#fff"/>
<path transform="translate(-153.65 -97.187)" d="m349.65 710.25c-0.44134 0.159-0.88616 0.305-1.3327 0.44463-0.47879 0.14817-0.95929 0.28993-1.4432 0.41877a36.12 36.12 0 0 1-40.149-16.205c-0.15122 0.6-0.30416 1.1935-0.44247 1.79a37.443 37.443 0 0 0 40.935 15.705c0.48395-0.12884 0.96617-0.26414 1.4368-0.41705 0.45471-0.13489 0.89953-0.28094 1.3426-0.43347a37.334 37.334 0 0 0 20.716-17.96c-0.26264-0.4414-0.54289-0.8712-0.82487-1.3075a36.004 36.004 0 0 1-20.238 17.964z" fill="#fff"/>
<path transform="translate(-153.65 -97.187)" d="m852.82 690.72-12.295 19.33 7.1616-25.164c-15.121-15.778-36.054-27.32-36.054-27.32s-25.776 42.363-18.838 68.422 24.851 31.033 43.961 25.946c19.11-5.0875 32.179-18.31 25.241-44.369-1.5442-5.8001-4.8985-11.494-9.1768-16.844z" fill="#f2f2f2"/>
<path transform="translate(-153.65 -97.187)" d="M836.55254,711.98182l.34195,1.28445c3.89859,14.95083,4.48189,27.27056,1.72489,36.78877-.03777.13944-.08361.27421-.12142.41366l-.64293-.18972-.61579-.19017c3.12311-10.31708,1.72926-23.35391-1.66782-36.39536-.10537-.4214-.21243-.84913-.33221-1.27346-1.48683-5.508-3.30848-10.995-5.2913-16.2688-.14989-.40954-.30782-.82372-.46576-1.2379-2.65313-6.94754-5.55229-13.48911-8.23818-19.12733-.188-.39939-.38243-.797-.57514-1.18837-4.58537-9.52463-8.47249-16.273-9.34592-17.76333-.10332-.18358-.16392-.2832-.17706-.30692l.55839-.33253.00467-.00806.56475-.33422c.01314.02376.21772.35745.5752.98408,1.35077,2.33693,4.93838,8.702,9.07483,17.25666.18465.38666.37905.78436.56708,1.18371,2.18446,4.57324,4.50052,9.71749,6.70328,15.17786q.83333,2.056,1.59422,4.06987c.16426.41249.3222.82667.47209,1.23622Q834.47663,704.312,836.55254,711.98182Z" fill="#fff"/>
<path transform="translate(-153.65 -97.187)" d="m821.92 674.09c-0.41079 0.17067-0.82794 0.343-1.2549 0.50432a36.302 36.302 0 0 1-3.5373 1.1392 35.312 35.312 0 0 1-15.64 0.59548c-0.17734 0.40809-0.35467 0.81623-0.53668 1.2324a36.62 36.62 0 0 0 16.515-0.55609 37.56 37.56 0 0 0 3.7739-1.2226c0.42054-0.15963 0.8377-0.332 1.2468-0.509a36.312 36.312 0 0 0 9.3246-5.7715q-0.5498-0.41539-1.0755-0.81682a35.191 35.191 0 0 1-8.8163 5.4046z" fill="#fff"/>
<path transform="translate(-153.65 -97.187)" d="m830.79 694.52q-0.648 0.21334-1.3061 0.38858c-0.13185 0.04192-0.27173 0.07916-0.40528 0.11471a35.5 35.5 0 0 1-32.072-7.2118c-0.15446 0.44286-0.30894 0.88576-0.45534 1.3333a36.818 36.818 0 0 0 32.866 7.1503c0.17806-0.0474 0.35609-0.0948 0.53246-0.14857 0.44339-0.12486 0.87876-0.2544 1.3124-0.39026a36.623 36.623 0 0 0 17.093-11.633c-0.30336-0.321-0.60673-0.642-0.91646-0.96127a35.256 35.256 0 0 1-16.649 11.358z" fill="#fff"/>
<path transform="translate(-153.65 -97.187)" d="m836.55 711.98c-0.43493 0.15665-0.87329 0.30057-1.3133 0.43817-0.47184 0.146-0.94536 0.28572-1.4223 0.41268a35.596 35.596 0 0 1-39.565-15.969c-0.149 0.59128-0.29975 1.1762-0.43605 1.764a36.899 36.899 0 0 0 40.34 15.477c0.47691-0.127 0.95212-0.2603 1.4159-0.411 0.4481-0.13293 0.88646-0.27686 1.3231-0.42718a36.791 36.791 0 0 0 20.415-17.699c-0.25882-0.435-0.535-0.85854-0.81288-1.2885a35.481 35.481 0 0 1-19.944 17.703z" fill="#fff"/>
<path transform="translate(-153.65 -97.187)" d="m598.35 210.49c0-46.238-32.235-83.721-72-83.721s-72 37.483-72 83.721c0 41.936 26.516 76.669 61.116 82.769v7.8898a5.6198 5.6198 0 0 0 5.6197 5.6198h10.528a5.6198 5.6198 0 0 0 5.6197-5.6198v-7.8897c34.6-6.1006 61.116-40.834 61.116-82.77z" fill="#fff"/>
<path transform="translate(-153.65 -97.187)" d="m513.74 300a21.418 21.418 0 0 1 16.979-5.6796 20.129 20.129 0 0 1 15.046 9.8117 21.016 21.016 0 0 1 1.9439 17.548c-1.8926 5.7654-5.9154 10.563-10.04 14.888-4.3268 4.5367-9.0323 8.7206-13.1 13.502a64.219 64.219 0 0 0-12.966 58.21 64.743 64.743 0 0 0 21.119 32.43q1.9387 1.5845 3.9939 3.0187c1.5851 1.1095 3.086-1.4902 1.5142-2.5904a61.597 61.597 0 0 1-23.244-31.993 61.01 61.01 0 0 1 13.163-58.613c4.2908-4.7374 9.0949-8.9781 13.384-13.717 4.1092-4.5397 7.8552-9.6614 9.4603-15.659a23.932 23.932 0 0 0-2.4549-18.223 23.27 23.27 0 0 0-14.912-11.158 24.683 24.683 0 0 0-18.289 3.1664 23.632 23.632 0 0 0-3.7213 2.938c-1.3932 1.3419 0.72974 3.4616 2.1213 2.1213z" fill="#3f3d56"/>
<path transform="translate(-153.65 -97.187)" d="m320.9 175.43c-22.03-50.644-75.197-76.341-118.75-57.395s-61.003 75.36-38.972 126c19.981 45.932 65.573 71.342 106.38 61.538l3.7591 8.6417a6.7126 6.7126 0 0 0 8.8329 3.4779l11.531-5.0162a6.7126 6.7126 0 0 0 3.4776-8.833l-3.7591-8.6416c34.991-23.167 47.485-73.845 27.505-119.78z" fill="#fff"/>
<path transform="translate(-153.65 -97.187)" d="m270.66 313.53a25.665 25.665 0 0 1 15.374-14.111 24.23 24.23 0 0 1 20.317 2.2572 25.42 25.42 0 0 1 12.024 17.161c1.5376 8.2286-0.95726 16.61-3.7923 24.271-2.9718 8.0308-6.6752 15.83-8.7416 24.17a76.404 76.404 0 0 0 15.903 67.588 77.102 77.102 0 0 0 37.225 23.773c1.7739 0.5 3.5663 0.9268 5.3726 1.2926 1.8849 0.38172 2.6913-2.5093 0.79752-2.8928a74.113 74.113 0 0 1-39.239-22.024 72.37 72.37 0 0 1-19.041-43.753 73.176 73.176 0 0 1 2.2408-24.599c2.2795-8.456 6.1381-16.373 9.047-24.612 2.7758-7.862 4.743-16.304 2.999-24.624a28.3 28.3 0 0 0-12.359-17.766 27.34 27.34 0 0 0-20.736-3.9174 29.178 29.178 0 0 0-17.731 12.122 27.56 27.56 0 0 0-2.5514 4.8661c-0.73759 1.7822 2.1638 2.5591 2.8928 0.79752z" fill="#3f3d56"/>
<polygon points="782.65 689.95 798.82 689.95 806.52 627.58 782.65 627.58" fill="#ffb6b6"/>
<path transform="translate(-153.65 -97.187)" d="m932.17 781.86 31.846-0.00129h0.00129a20.296 20.296 0 0 1 20.295 20.294v0.6595l-52.141 0.00193z" fill="#2f2e41"/>
<polygon points="686.94 676.2 702.36 681.08 728.5 623.93 705.75 616.73" fill="#ffb6b6"/>
<path transform="translate(-153.65 -97.187)" d="m838.25 767.11 30.363 9.604 0.00123 3.9e-4a20.296 20.296 0 0 1 13.228 25.47l-0.19891 0.62879-49.713-15.725z" fill="#2f2e41"/>
<path transform="translate(-153.65 -97.187)" d="m877 502.28-8.9733 25.309-0.25445 136.63-25.448 93.546 31.238 8.718 34.506-88.206 11.068-77.476 14.585 77.926-2.0076 92.62h32.775l2.474-142.73a312.94 312.94 0 0 0-20.66-117.37v-6e-5z" fill="#2f2e41"/>
<polygon points="712.66 302.57 765.64 302.57 787.78 324.71 794.39 416.21 714.38 429.08 688.67 341.78 702.67 304.67" fill="#e4e4e4"/>
<polygon points="693.61 342.65 612.04 311.96 609.92 299.28 661.36 255.75 678.48 268.59 647.45 302.57 702.67 304.67" fill="#e4e4e4"/>
<circle cx="671.25" cy="260.36" r="13.19" fill="#ffb6b6"/>
<path transform="translate(-153.65 -97.187)" d="m855.49 374.17 5.9602-26.876a36.889 36.889 0 1 1 72.027 15.973l-5.9602 26.876a4.9608 4.9608 0 0 1-5.9105 3.7648l-62.352-13.828a4.9608 4.9608 0 0 1-3.7648-5.9106z" fill="#2f2e41"/>
<circle transform="translate(-218.25 164.39) rotate(-16.159)" cx="889.03" cy="358.32" r="27.046" fill="#ffb6b6"/>
<path transform="translate(-153.65 -97.187)" d="m852.45 347.55a29.214 29.214 0 0 1 34.806-22.171l5.3754 1.1921a29.213 29.213 0 0 1 22.17 34.806l-0.11921 0.53751-11.36-2.5192-1.4685-11.708-3.1807 10.677-5.8707-1.3019-0.74088-5.9074-1.605 5.3871-38.127-8.4552z" fill="#2f2e41"/>
<path transform="translate(-153.65 -97.187)" d="m879.76 387.79a4.8819 4.8819 0 0 1 0.74345-5.1442c8.0989-9.5711 20.514-27.822 12.666-42.516l-0.56414-1.0559 30.733 6.8154-10.232 46.141-29.011-1.2654a5.062 5.062 0 0 1-0.87291-0.11428 4.9353 4.9353 0 0 1-3.4617-2.8605z" fill="#2f2e41"/>
<polygon points="763.53 303.12 849.81 315.39 854.64 327.32 813.86 380.96 794.36 372.14 817.29 332.24 762.92 342.16" fill="#e4e4e4"/>
<path transform="translate(-153.65 -97.187)" d="m1046.4 226.38c0-55.228-38.503-100-86-100s-86 44.772-86 100c0 50.09 31.672 91.577 73 98.864v9.4239a6.7126 6.7126 0 0 0 6.7124 6.7126h12.575a6.7126 6.7126 0 0 0 6.7124-6.7126v-9.4238c41.328-7.2868 73-48.774 73-98.864z" fill="#fff"/>
<path transform="translate(-153.65 -97.187)" d="m945.08 333.1a25.865 25.865 0 0 1 20.59-6.8582 24.278 24.278 0 0 1 17.894 11.483 25.382 25.382 0 0 1 2.7344 21.063c-2.1218 6.8705-6.7787 12.623-11.633 17.779-5.1788 5.5005-10.852 10.53-15.804 16.245a76.411 76.411 0 0 0-15.992 69.218 77.007 77.007 0 0 0 25.39 39.214q2.2439 1.8268 4.6185 3.4842c1.5857 1.1087 3.0867-1.491 1.5142-2.5904a73.857 73.857 0 0 1-27.817-38.13 73.19 73.19 0 0 1 15.362-70.158c5.0898-5.6816 10.822-10.743 15.97-16.37 4.9295-5.3883 9.4553-11.438 11.48-18.558a28.272 28.272 0 0 0-2.5876-21.622 27.572 27.572 0 0 0-17.494-13.461 29.161 29.161 0 0 0-21.891 3.6304 27.621 27.621 0 0 0-4.4571 3.508c-1.3912 1.3438 0.73157 3.4637 2.1213 2.1213z" fill="#3f3d56"/>
<circle cx="801.84" cy="383.03" r="13.19" fill="#ffb6b6"/>
<path transform="translate(-153.65 -97.187)" d="m818.03 361.25c-0.69152 1.0939-2.3683 0.93492-3.3098 0.25105-1.3071-0.94938-0.88388-2.778 0.01617-3.8585 2.8606-3.4341 7.5918 0.19151 8.23 3.6019a8.5797 8.5797 0 0 1-4.037 8.5433c-3.2639 1.934-7.5033 0.96413-10.309-1.3507-5.8537-4.8288-4.2599-14.497 2.2421-17.99 4.1495-2.2295 9.3954-1.2509 13.483 0.61662 4.6014 2.1023 8.5581 5.3245 12.813 8.0104a71.443 71.443 0 0 0 30.86 10.537c1.9189 0.19568 1.9052-2.8057 0-3a68.626 68.626 0 0 1-17.732-4.2696 77.925 77.925 0 0 1-15.933-8.7453c-5.0103-3.4342-10.245-6.7703-16.445-7.3378a14.266 14.266 0 0 0-13.151 5.7224 14.569 14.569 0 0 0-2.1895 12.78 13.492 13.492 0 0 0 10.285 8.8551 11.03 11.03 0 0 0 11.628-5.3725c2.2822-3.947 2.208-9.249-1.2391-12.521a7.9579 7.9579 0 0 0-7.738-2.1046 6.8075 6.8075 0 0 0-4.6032 5.8585c-0.3326 5.1234 6.9402 7.6856 9.7202 3.2881 1.0346-1.6367-1.5603-3.1436-2.5904-1.5142z" fill="#3f3d56"/>
<polygon points="64.196 425.29 60.234 430.26 46.22 421.97 50.182 417" fill="#e4e4e4"/>
<polygon points="78.819 446.65 82.319 451.87 67.597 459.2 64.097 453.97" fill="#e4e4e4"/>
<polygon points="94.059 423.94 101.05 424.19 100.36 438.83 93.363 438.58" fill="#e4e4e4"/>
<polygon points="229.2 29.291 225.23 34.262 211.22 25.972 215.18 21" fill="#e4e4e4"/>
<polygon points="243.82 50.651 247.32 55.874 232.6 63.197 229.1 57.974" fill="#e4e4e4"/>
<polygon points="259.06 27.945 266.05 28.192 265.36 42.826 258.36 42.579" fill="#e4e4e4"/>
<polygon points="618.2 81.291 614.23 86.262 600.22 77.972 604.18 73" fill="#e4e4e4"/>
<polygon points="632.82 102.65 636.32 107.87 621.6 115.2 618.1 109.97" fill="#e4e4e4"/>
<polygon points="648.06 79.945 655.05 80.192 654.36 94.826 647.36 94.579" fill="#e4e4e4"/>
<polygon points="499.2 8.291 495.23 13.262 481.22 4.972 485.18 0" fill="#e4e4e4"/>
<polygon points="513.82 29.651 517.32 34.874 502.6 42.197 499.1 36.974" fill="#e4e4e4"/>
<polygon points="529.06 6.945 536.05 7.192 535.36 21.826 528.36 21.579" fill="#e4e4e4"/>
<rect transform="translate(-217.04 756.16) rotate(-55.524)" x="775.35" y="478.38" width="7" height="17" fill="#e4e4e4"/>
<rect transform="translate(590.54 1374.2) rotate(240)" x="793.35" y="512.38" width="7" height="17" fill="#e4e4e4"/>
<rect transform="translate(1467.1 927.79) rotate(182.35)" x="817.35" y="487.38" width="7" height="17" fill="#e4e4e4"/>
<polygon points="322.9 643.87 335.01 642 326.71 545.2 299.71 550.2" fill="#ffb6b6"/>
<path transform="translate(-153.65 -97.187)" d="m472.84 737.58 23.86-3.6898 1e-3 -1.5e-4a15.387 15.387 0 0 1 17.557 12.855l0.0764 0.49413-39.066 6.0411z" fill="#2f2e41"/>
<polygon points="195.56 642.67 207.81 643.19 222.71 557.2 195.71 557.2" fill="#ffb6b6"/>
<path transform="translate(-153.65 -97.187)" d="m346.25 735.73 24.122 1.0275h1e-3a15.387 15.387 0 0 1 14.717 16.028l-0.0213 0.49954-39.495-1.6825z" fill="#2f2e41"/>
<path transform="translate(-153.65 -97.187)" d="m373.32 459.68a10.025 10.025 0 0 0-1.7676-0.32933l7.6359-62.501 25.909-54.868a15.08 15.08 0 0 0-26.241-14.718v6e-5a118.97 118.97 0 0 0-15.225 33.596l-10.885 39.357 7.9595 67.493a9.9971 9.9971 0 1 0 12.614-8.0296z" fill="#ffb6b6"/>
<path transform="translate(-153.65 -97.187)" d="m389.05 402.14-32.734-37.447 16.216-38.142a20.802 20.802 0 0 1 38.668 15.314z" fill="#2f2e41"/>
<circle transform="translate(-172.06 408.76) rotate(-61.337)" cx="417.38" cy="268.5" r="29.729" fill="#ffb6b6"/>
<path transform="translate(-153.65 -97.187)" d="m422.35 232.38h-19.204c-12.59 0-22.796 11.482-22.796 25.646l0.88867 34.354a149.23 149.23 0 0 1 39.541 10.576l1.7925-7.6545 3.5356 10.081q4.7168 2.2853 9.3535 4.9979c-3.6079-16.951-5.0928-33.863-2.6157-47h6.5044v-7.1181l2.208 7.1181h11.792v-6e-5a31 31 0 0 0-31-31z" fill="#2f2e41"/>
<path transform="translate(-153.65 -97.187)" d="m484.97 647.64-2.7822 0.67011-2.335-43.429-17-130-19.5-49.5 9.5-34.5s11-24-16.5-42.5l-22-37c-15.197-9.9365-27.7-3.4393-34.365 13.45-5.8076 14.716-10.316 33.333-7.6348 52.55 6.0064 43.046 11 48 11 48s-37.5 41.5-29.5 94.5l-4.4585 137.22-4.0791-0.16723-0.44677 10.899 35.636 1.461 0.44677-10.899-2.956-0.12122 12.857-54.397 19-72 33 88 11.1 35.229-3.6567 0.88067 2.5542 10.605 34.674-8.3508z" fill="#2f2e41"/>
<path transform="translate(-153.65 -97.187)" d="m509.46 401.23a10.025 10.025 0 0 0-1.0844 1.4342l-52.503-34.757-37.51-47.694a15.08 15.08 0 0 0-24.891 16.9 118.97 118.97 0 0 0 23.253 28.631l30.346 27.323 63.937 23.035a9.9971 9.9971 0 1 0-1.5475-14.872z" fill="#ffb6b6"/>
<path transform="translate(-153.65 -97.187)" d="m465.01 361.44-48.126 12.553-26.877-31.55a20.802 20.802 0 0 1 30.978-27.751z" fill="#2f2e41"/>
<path transform="translate(-153.65 -97.187)" d="m838.04 754.3h-647.29a1.1907 1.1907 0 1 1 0-2.3814h647.29a1.1907 1.1907 0 1 1 0 2.3814z" fill="#cacaca"/>
</svg>
