<svg data-name="Layer 1" viewBox="0 0 829.13 587.68" xmlns="http://www.w3.org/2000/svg">
<polygon points="85.757 572.86 99.518 572.86 106.06 519.78 85.754 519.78" fill="#ffb6b6"/>
<path transform="translate(-185.43 -156.16)" d="m270.71 743.38 42.319-0.00159v-0.5352a16.473 16.473 0 0 0-16.472-16.472h-1e-3l-7.7302-5.8645-14.423 5.8654-3.6942 1.2e-4z" fill="#2f2e41"/>
<polygon points="107.98 508.64 118.81 517.12 156.7 479.37 140.71 466.85" fill="#ffb6b6"/>
<path transform="translate(-185.43 -156.16)" d="m284.18 675.8 33.316 26.096 0.33005-0.42131a16.473 16.473 0 0 0-2.8093-23.125l-8e-4 -6.3e-4 -2.4688-9.3836-14.971-4.2768-2.9082-2.278z" fill="#2f2e41"/>
<path transform="translate(-185.43 -156.16)" d="m358.2 422.94s18.265 18.941 10.147 62.912l6.815 75.288 1.7588 3.4852a11.051 11.051 0 0 1-2.0515 12.793l-1.4488 4.4929-1.3529 8.7941-50.397 75.765-19.279-20.294 31.118-71.029-8.4558-18.265-19.618-63.588-13.529 116.35 2.7059 100.12h-25.895l-16.046-111.62-16.912-156.94 8.7968-18.265z" fill="#2f2e41"/>
<path transform="translate(-185.43 -156.16)" d="m239.98 455.48-0.18455-0.25887c-9.8564-13.799 4.9677-46.958 7.2035-51.765a12.068 12.068 0 0 1-8.2603-12.889l0.96382-8.193 1.0047-8.0362-7.1974-7.1974-0.02023-0.17949-4.142-36.242-6.0224-24.072a52.848 52.848 0 0 1 15-51.216l13.921-2.2104 16.918-16.301h27.282l9.3544 8.9374c17.463 3.0626 20.463 2.0626 35.463 20.063l-6.8159 55.962-1.7003 7.6987 0.00506 10.442 4.3228 4.8042a14.95 14.95 0 0 1 3.5462 12.932l-0.56848 2.8423c4.4583 1.9106 8.7126 35.866 9.729 40.608l1.5183 7.0847c1.2989 1.714 9.8726 13.146 9.8726 16.271 0 0.46921-0.34634 0.92275-1.0896 1.4259-5.8429 3.9564-29.138 32.022-43.431 26.303-15.225-6.0876-75.747 3.0448-76.357 3.1378z" fill="#3f3d56"/>
<path transform="translate(-185.43 -156.16)" d="m236.32 390.41s7.006-39.595-0.05212-54.485l-28 2 4.2612 56.487 24.477 62.717a11.154 11.154 0 1 0 18.078-6.4629z" fill="#ffb6b6"/>
<path transform="translate(-185.43 -156.16)" d="m208.26 314.92 1.7329-18.871a54.107 54.107 0 0 1 19.403-36.752 23.687 23.687 0 0 1 24.787-3.2721 23.631 23.631 0 0 1 12.205 29.866c-6.4715 16.972-4.1347 34.921-16.753 37.109l1.371 6.5224-12.407 40.49-35.338-4.0935z" fill="#3f3d56"/>
<path transform="translate(-185.43 -156.16)" d="m394.64 371.64s-20.509-34.586-35.571-41.272l-19.923 19.776 40.067 40.044 59.456 31.584a11.154 11.154 0 1 0 9.4905-16.689z" fill="#ffb6b6"/>
<path transform="translate(-185.43 -156.16)" d="m324.15 332.71-10.993-15.437a54.107 54.107 0 0 1-9.2575-40.515 23.687 23.687 0 0 1 16.658-18.645 23.631 23.631 0 0 1 28.729 14.683c6.1621 17.087 28.639 45.17 20.499 55.058l5.2928 4.0507 7.9988 22.787-29.46 19.942z" fill="#3f3d56"/>
<circle cx="95.531" cy="42.587" r="30.299" fill="#ffb6b6"/>
<path transform="translate(-185.43 -156.16)" d="M258.97664,220.10456c-.26447-.23195-.51409-.47962-.77257-.718-.00927.02445-.01069.04951-.02056.07389Z" fill="#2f2e41"/>
<path transform="translate(-185.43 -156.16)" d="m305.79 166.75a17.182 17.182 0 0 0-6.0672-5.8497 25.38 25.38 0 0 0-5.3037-1.8792l-4.795-1.3083a38.013 38.013 0 0 0-7.5441-1.519 19.418 19.418 0 0 0-17.737 9.6226c-1.4487 2.5696-2.6107 5.7715-5.4067 6.7116-2.2545 0.75806-4.7143-0.31122-7.0837-0.10378a8.5295 8.5295 0 0 0-6.4757 4.77 18.38 18.38 0 0 0-1.6989 8.1412 45.619 45.619 0 0 0 14.522 34.048c0.782-2.0613-0.506-4.2868-1.5242-6.2586-1.0302-1.9952-1.6669-4.7768 0.05858-6.2138 1.92-1.599 4.9961-0.04843 7.2668-1.0912a5.0733 5.0733 0 0 0 2.5361-4.0766c0.21979-1.6567-0.00968-3.3408 0.09431-5.0088a12.542 12.542 0 0 1 13.412-11.73c5.1684 0.36919 10.184 3.9009 15.158 2.448 2.3347-0.682 4.326-2.4185 6.7407-2.7106 2.6742-0.32351 5.1899 1.1857 7.4606 2.6348a26.596 26.596 0 0 0-3.612-20.627z" fill="#2f2e41"/>
<path transform="translate(-185.43 -156.16)" d="m410.83 726.35-7.71-12.39-1.54 7.0801c-0.27 1.24-0.54 2.5-0.79 3.75-2.19-1.8701-4.52-3.6001-6.7998-5.26q-10.5-7.6201-20.99-15.26l2.1899 12.7c1.3501 7.8201 2.7602 15.8 6.1001 22.95 0.37011 0.81005 0.77 1.6101 1.2002 2.3901h32.54a10.487 10.487 0 0 0 0.54-2.2401 0.77479 0.77479 0 0 0 0.00976-0.15c0.51031-4.8501-2.1699-9.42-4.75-13.57z" fill="#f0f0f0"/>
<path transform="translate(-185.43 -156.16)" d="m974.92 712.97-13.985-22.474-2.7934 12.842c-0.48978 2.2492-0.97956 4.5347-1.433 6.802-3.9723-3.3922-8.1988-6.5301-12.334-9.541q-19.046-13.822-38.074-27.68l3.9723 23.036c2.4489 14.185 5.0068 28.659 11.065 41.628 0.67135 1.4694 1.3967 2.9205 2.177 4.3354h59.024a19.024 19.024 0 0 0 0.97957-4.0633 1.4048 1.4048 0 0 0 0.01771-0.27213c0.92555-8.7972-3.936-17.087-8.616-24.614z" fill="#f0f0f0"/>
<path transform="translate(-185.43 -156.16)" d="m1013.4 743.53-826.75 0.30734a1.1907 1.1907 0 0 1 0-2.3814l826.75-0.30734a1.1907 1.1907 0 0 1 0 2.3814z" fill="#cacaca"/>
<path transform="translate(-185.43 -156.16)" d="m444.83 394.46v287.02a13.806 13.806 0 0 0 13.795 13.795h425.34a13.806 13.806 0 0 0 13.795-13.795v-287.02a13.812 13.812 0 0 0-13.795-13.78h-425.34a13.812 13.812 0 0 0-13.795 13.78z" fill="#3f3d56"/>
<path transform="translate(-185.43 -156.16)" d="m454.81 398.03v279.91a7.3853 7.3853 0 0 0 7.3726 7.3726h418.24a7.3853 7.3853 0 0 0 7.3726-7.3726v-279.91a7.3886 7.3886 0 0 0-7.3726-7.3879h-418.24a7.3887 7.3887 0 0 0-7.3726 7.3879z" fill="#fff"/>
<path transform="translate(-185.43 -156.16)" d="m435.94 737.46a8.2716 8.2716 0 0 0 6.5087 3.114h455.44a8.3806 8.3806 0 0 0 8.1919-10.1l-7.0698-33.581a8.3957 8.3957 0 0 0-5.2181-6.088 8.1206 8.1206 0 0 0-2.9738-0.561h-441.33a8.1199 8.1199 0 0 0-2.9738 0.561 8.395 8.395 0 0 0-5.2181 6.088l-7.0698 33.581a8.3742 8.3742 0 0 0 1.7113 6.9856z" fill="#2f2e41"/>
<rect transform="translate(1575.7 1244.8) rotate(180)" x="873.55" y="696.29" width="14.027" height="8.4164" rx=".48819" fill="#3f3d56"/>
<rect transform="translate(1519.6 1244.8) rotate(180)" x="845.5" y="696.29" width="14.027" height="8.4164" rx=".48819" fill="#3f3d56"/>
<rect transform="translate(1463.5 1244.8) rotate(180)" x="817.44" y="696.29" width="14.027" height="8.4164" rx=".48819" fill="#3f3d56"/>
<rect transform="translate(1407.4 1244.8) rotate(180)" x="789.39" y="696.29" width="14.027" height="8.4164" rx=".48819" fill="#3f3d56"/>
<rect transform="translate(1351.3 1244.8) rotate(180)" x="761.33" y="696.29" width="14.027" height="8.4164" rx=".48819" fill="#3f3d56"/>
<rect transform="translate(1295.2 1244.8) rotate(180)" x="733.28" y="696.29" width="14.027" height="8.4164" rx=".48819" fill="#3f3d56"/>
<rect transform="translate(1239 1244.8) rotate(180)" x="705.22" y="696.29" width="14.027" height="8.4164" rx=".48819" fill="#3f3d56"/>
<rect transform="translate(1182.9 1244.8) rotate(180)" x="677.17" y="696.29" width="14.027" height="8.4164" rx=".48819" fill="#3f3d56"/>
<rect transform="translate(1126.8 1244.8) rotate(180)" x="649.12" y="696.29" width="14.027" height="8.4164" rx=".48819" fill="#3f3d56"/>
<rect transform="translate(1070.7 1244.8) rotate(180)" x="621.06" y="696.29" width="14.027" height="8.4164" rx=".48819" fill="#3f3d56"/>
<rect transform="translate(1014.6 1244.8) rotate(180)" x="593.01" y="696.29" width="14.027" height="8.4164" rx=".48819" fill="#3f3d56"/>
<rect transform="translate(958.5 1244.8) rotate(180)" x="564.95" y="696.29" width="14.027" height="8.4164" rx=".48819" fill="#3f3d56"/>
<rect transform="translate(902.39 1244.8) rotate(180)" x="536.9" y="696.29" width="14.027" height="8.4164" rx=".48819" fill="#3f3d56"/>
<rect transform="translate(846.28 1244.8) rotate(180)" x="508.84" y="696.29" width="14.027" height="8.4164" rx=".48819" fill="#3f3d56"/>
<rect transform="translate(790.17 1244.8) rotate(180)" x="480.79" y="696.29" width="14.027" height="8.4164" rx=".48819" fill="#3f3d56"/>
<rect transform="translate(734.06 1244.8) rotate(180)" x="452.73" y="696.29" width="14.027" height="8.4164" rx=".48819" fill="#3f3d56"/>
<rect transform="translate(1576.4 1272.9) rotate(180)" x="873.88" y="710.32" width="14.027" height="8.4164" rx=".48819" fill="#3f3d56"/>
<rect transform="translate(1520.3 1272.9) rotate(180)" x="845.83" y="710.32" width="14.027" height="8.4164" rx=".48819" fill="#3f3d56"/>
<rect transform="translate(1464.1 1272.9) rotate(180)" x="817.77" y="710.32" width="14.027" height="8.4164" rx=".48819" fill="#3f3d56"/>
<rect transform="translate(1408 1272.9) rotate(180)" x="789.72" y="710.32" width="14.027" height="8.4164" rx=".48819" fill="#3f3d56"/>
<rect transform="translate(1351.9 1272.9) rotate(180)" x="761.67" y="710.32" width="14.027" height="8.4164" rx=".48819" fill="#3f3d56"/>
<rect transform="translate(1295.8 1272.9) rotate(180)" x="733.61" y="710.32" width="14.027" height="8.4164" rx=".48819" fill="#3f3d56"/>
<rect transform="translate(1239.7 1272.9) rotate(180)" x="705.56" y="710.32" width="14.027" height="8.4164" rx=".48819" fill="#3f3d56"/>
<rect transform="translate(1183.6 1272.9) rotate(180)" x="677.5" y="710.32" width="14.027" height="8.4164" rx=".48819" fill="#3f3d56"/>
<rect transform="translate(1127.5 1272.9) rotate(180)" x="649.45" y="710.32" width="14.027" height="8.4164" rx=".48819" fill="#3f3d56"/>
<rect transform="translate(1071.4 1272.9) rotate(180)" x="621.39" y="710.32" width="14.027" height="8.4164" rx=".48819" fill="#3f3d56"/>
<rect transform="translate(1015.3 1272.9) rotate(180)" x="593.34" y="710.32" width="14.027" height="8.4164" rx=".48819" fill="#3f3d56"/>
<rect transform="translate(959.16 1272.9) rotate(180)" x="565.28" y="710.32" width="14.027" height="8.4164" rx=".48819" fill="#3f3d56"/>
<rect transform="translate(903.05 1272.9) rotate(180)" x="537.23" y="710.32" width="14.027" height="8.4164" rx=".48819" fill="#3f3d56"/>
<rect transform="translate(846.94 1272.9) rotate(180)" x="509.17" y="710.32" width="14.027" height="8.4164" rx=".48819" fill="#3f3d56"/>
<rect transform="translate(790.83 1272.9) rotate(180)" x="481.12" y="710.32" width="14.027" height="8.4164" rx=".48819" fill="#3f3d56"/>
<rect transform="translate(734.72 1272.9) rotate(180)" x="453.06" y="710.32" width="14.027" height="8.4164" rx=".48819" fill="#3f3d56"/>
<rect transform="translate(1146.8 1306.6) rotate(180)" x="610.03" y="727.15" width="112.22" height="8.4164" rx=".48819" fill="#3f3d56"/>
<path transform="translate(-185.43 -156.16)" d="m766.58 560.2a94.642 94.642 0 1 1-5.992-33.327c0.20638 0.55577 0.4076 1.1115 0.60338 1.6726v0.0053q1.3102 3.7 2.308 7.5377a95.286 95.286 0 0 1 3.0807 24.111z" fill="#3f3d56"/>
<path transform="translate(-185.43 -156.16)" d="m660.88 495.92a31.968 31.968 0 0 0-28.065-1.1482c-3.924 1.7077-8.0558 4.7712-9.3649 10.303 5.2943-3.1245 12.148 1.8122 13.51 9.7317l-0.318 0.08768c-0.71955 5.4854 0.88676 11.457 3.9966 14.859a10.451 10.451 0 0 1 5.0162-7.4396c2.2849-1.502 4.8126-2.5931 6.5566-5.175 2.0675-3.0608 2.5925-7.5341 3.4139-11.615s2.3796-8.4668 5.2547-9.6039z" fill="#6c63ff"/>
<path transform="translate(-185.43 -156.16)" d="m631.24 542.6c-1.4663 2.202-3.4248 3.5836-5.1821 5.3039a11.93 11.93 0 0 0-3.7688 7.0454c-0.22235 1.9162 0.12173 3.8641 0.07405 5.8015-0.04756 1.9373-0.6934 4.1182-2.0114 4.5999-2.0803 0.75161-3.6683-3.1125-5.8068-3.3824-1.6992-0.21175-3.2289 2.4614-2.7367 4.7799s2.8055 3.3454 4.1341 1.8315c1.2016 2.0167 0.35461 5.6745-1.4504 6.2938-0.19061 1.2704-0.3811 2.5355-0.56642 3.8059-4.5628-3.1919-9.1733-6.4366-13.053-11.111a33.725 33.725 0 0 1-7.6859-18.167c-0.50284-5.3728 0.24347-11.518-2.2232-15.652-1.9745-3.3083-5.3622-4.0389-8.4112-3.8324-0.55576 0.037-1.1168 0.10055-1.6726 0.16936a94.237 94.237 0 0 1 6.823-15.615 6.6848 6.6848 0 0 0 1.7097-1.064c2.8373-2.4084 4.0971-7.2836 6.3997-10.655q0.22235-0.32556 0.46052-0.63517c2.3556-3.0755 5.5104-4.6582 8.5594-6.1297 6.749-3.2765 13.694-6.5955 20.819-6.1402l-2.0273 0.19585q-3.5492 9.9409-7.1037 19.882-0.54 1.5244-1.0904 3.0543c-1.3445 3.7688-2.7314 7.7812-2.5249 12 0.12174 2.4984 0.98979 5.1663 2.6414 6.0238 1.5403 0.794 3.2236-0.18 4.711-1.1434 0.62994-0.4023 1.2546-0.8046 1.8845-1.2122 2.2603-1.4557 4.764-2.9484 7.1513-1.9744 2.1862 0.88931 3.8006 3.8589 4.1076 7.0614a14.117 14.117 0 0 1-2.1597 8.8663z" fill="#6c63ff"/>
<path transform="translate(-185.43 -156.16)" d="m644.69 587.84q-9.9019-6.0967-19.804-12.193l0.112-0.28861c-4.1044 1.5633-5.8084 8.859-5.1301 14.825s2.9783 11.3 4.1402 17.113a45.425 45.425 0 0 1-1.7126 23.835 195.2 195.2 0 0 0 22.931-31.598 16.905 16.905 0 0 0 2.0742-4.5993 7.3168 7.3168 0 0 0-0.485-5.204 5.7936 5.7936 0 0 0-2.1256-1.8911z" fill="#6c63ff"/>
<path transform="translate(-185.43 -156.16)" d="m618.63 513.9a7.2994 7.2994 0 0 0-0.33454 5.3083 5.884 5.884 0 0 0 3.2874 3.0448l3.6475 1.808c1.2135 0.60148 2.5214 1.209 3.7584 0.71411 1.492-0.59688 2.5265-2.936 2.2589-5.1075-0.28483-2.3108-1.7414-3.9003-3.0885-5.2539q-2.8278-2.8413-5.6555-5.6826l-1.0624 1.3013a14.189 14.189 0 0 0-2.8114 3.8675z" fill="#6c63ff"/>
<path transform="translate(-185.43 -156.16)" d="m747.03 538.6q2.4615 0.5796 4.9228 1.1592c-0.28586 5.5422-3.0331 10.671-6.7172 12.529-1.5351 0.77287-3.2448 1.0587-4.5152 2.5038-1.1486 1.3127-1.7309 3.3559-2.2656 5.3092q-1.4054 5.1134-2.8108 10.227c-1.0057 3.6736-2.2972 7.7548-4.9122 9.0782-2.2444 1.138-4.8116-0.25414-6.5373-2.5885-1.7256-2.3343-2.779-5.4733-3.8006-8.5328 0.06352 3.3348-1.4874 6.6061-3.6841 7.7653-2.202 1.1592-4.8805 0.11114-6.352-2.4772-1.0587-1.858-1.498-4.3088-2.5355-6.1932-1.0375-1.8844-3.213-2.9643-4.3458-1.1963-0.74638 1.1752-0.65113 2.9748-1.0216 4.4676a4.8513 4.8513 0 0 1-4.0546 3.9012 6.7615 6.7615 0 0 1-4.854-2.2179 21.988 21.988 0 0 1-6.0291-12.159 14.505 14.505 0 0 1 0.16943-6.6485c0.65107-2.059 2.2232-3.647 3.7847-3.2554 1.0269-2.1703-1.0004-5.0499-2.8266-4.7958-1.8315 0.25407-3.266 2.2179-4.7693 3.7265-1.498 1.5086-3.5941 2.6043-5.1028 1.1063a2.0699 2.0699 0 0 1-2.1014 2.1968 7.5062 7.5062 0 0 1-2.7366-1.4504c-3.4566-2.1544-7.8448-0.72518-10.301 3.3507 1.5351-6.532 3.7848-14.027 8.5011-15.562 1.9268-0.62987 4.0283-0.11114 5.8492-1.2016 3.2237-1.932 3.8748-9.2315 1.0905-12.243 0.35461 2.8478 0.28586 6.172-1.2175 8.12-1.5033 1.948-4.6582 0.6775-4.4676-2.202a1.9291 1.9291 0 0 1-3.5889 0.7622c-1.0004-1.5244-0.91574-4.0176-0.20645-5.8385a13.752 13.752 0 0 1 3.086-4.3829c2.5143-2.6943 5.0658-5.4204 7.9771-7.1143 2.9166-1.6938 6.2832-2.2655 9.205-0.58219 1.5404 0.88925 2.8955 2.3714 4.4676 3.1548a3.3107 3.3107 0 0 0 4.6105-1.154c1.1698-2.0538 0.61928-5.1028 1.0534-7.67 0.7781-4.5364 5.3145-6.659 7.8288-3.663-1.8791-0.48165-3.8218 1.7415-4.0547 4.4359-0.23818 2.6943 1.1222 5.4151 2.9431 6.2303 3.0596 1.3551 6.0556-2.0539 8.3688-5.2087q3.6206-4.9546 7.2518-9.9038a11.969 11.969 0 0 1 1.2968-1.5774 4.1729 4.1729 0 0 1 5.7009-0.11643c2.4455 1.9955 3.5942 6.0873 5.6004 8.9034 2.9113 4.0917 7.2677 5.0869 11.322 5.8809q4.5337 0.88134 9.0728 1.7733a94.005 94.005 0 0 1 5.2668 11.63 31.875 31.875 0 0 0-13.562 11.725z" fill="#6c63ff"/>
<path transform="translate(-185.43 -156.16)" d="m763.5 536.09a19.079 19.079 0 0 0-1.0057 5.6691c-2.5938-3.1654-3.0066-9.0992-1.3022-13.207q1.3102 3.7 2.308 7.5377z" fill="#6c63ff"/>
<path transform="translate(-185.43 -156.16)" d="m756.8 602.29a94.895 94.895 0 0 1-7.8871 13.196c-1.9056-0.81519-3.9541 0.64047-5.738 2.0062-1.8633 1.4292-4.1023 2.8213-6.0132 1.5192-1.9532-1.3339-2.5832-5.0657-1.9638-8.0247a21.382 21.382 0 0 1 3.6629-7.5377c1.588-2.3714 3.2871-4.8328 5.4945-5.7538 2.2126-0.921 5.0551 0.3811 5.7009 3.5254l1.5668-0.053c-0.87872-1.2068-0.41813-3.7053 0.76227-4.1447 1.3604-0.51343 2.5408 1.3551 3.3454 3.0066 0.36001 0.74632 0.72522 1.498 1.0693 2.2603z" fill="#6c63ff"/>
<path transform="translate(-185.43 -156.16)" d="m696.79 579.93c-3.3678 0.21179-6.0354-3.9342-7.8081-8.0128s-3.3901-8.7429-6.4289-10.819c-1.7363-1.1863-3.7159-1.349-5.5992-1.9239a6.933 6.933 0 0 1-4.755-4.1865l-2.1363-0.863a32.084 32.084 0 0 0-8.1111 5.7834 18.128 18.128 0 0 0-4.8331 10.566c-0.4081 4.2762 1.0989 9.0442 3.9147 10.651 2.2249 1.2693 4.8153 0.46924 7.069 1.6312 2.8158 1.4517 4.4875 5.669 5.1203 9.833s0.47244 8.4914 0.92518 12.703 1.7005 8.5932 4.2828 10.751c3.2314 2.7006 7.973 0.45652 9.4228-4.4595 0.71115-2.4114 0.68665-5.1324 1.2185-7.6355 0.93666-4.4082 3.4642-7.6786 5.469-11.295s3.5828-8.5271 2.2495-12.724z" fill="#6c63ff"/>
<path transform="translate(-185.43 -156.16)" d="m663.52 536.61a8.9885 8.9885 0 0 1 0.877 0.931 3.0588 3.0588 0 0 1-0.05384 3.1587 2.9386 2.9386 0 0 0 2.1045-1.0696 13.528 13.528 0 0 0 1.6135-2.2729 2.4773 2.4773 0 0 0 0.47574-1.9827c-0.15909-0.45405-0.53532-0.64773-0.79908-0.98921a6.722 6.722 0 0 1-0.73806-2.1437 3.8664 3.8664 0 0 0-2.802-2.9529l0.16878 0.0323a1.6009 1.6009 0 0 0-0.74986 1.7053c0.10224 0.66055 0.5267 1.2089 0.48446 1.8826-0.0607 0.96873-1.0288 1.4233-1.0887 2.3922a1.8494 1.8494 0 0 0 0.50754 1.3089z" fill="#6c63ff"/>
<path transform="translate(-185.43 -156.16)" d="m657.75 520.15 0.015-0.00292a2.6967 2.6967 0 0 0 0.28733-0.30608z" fill="#6c63ff"/>
<path transform="translate(-185.43 -156.16)" d="M658.75542,524.69918a2.937,2.937,0,0,0,.91427-2.91143c-.24465-1.10152-1.11053-1.84212-1.90925-1.63868a1.946,1.946,0,0,1-1.80937.53269c-.49379-.12712-1.03591-.4545-1.46415-.08247a2.2167,2.2167,0,0,0-.49873.97379q-.23776.72994-.47557,1.45973a.92111.92111,0,0,0-.05619.55318.46863.46863,0,0,0,.35936.28569q1.42664.42059,2.85323.84114A2.45818,2.45818,0,0,0,658.75542,524.69918Z" fill="#6c63ff"/>
<path transform="translate(-185.43 -156.16)" d="m730.56 587.48q-0.65947-1.0796-1.3189-2.1594a7.2143 7.2143 0 0 0-1.738-2.1822 1.54 1.54 0 0 0-2.1924 0.21963l0.05355 0.41113a9.2853 9.2853 0 0 1 2.3165 4.5198c0.10024 0.73559 0.06535 1.4969 0.15325 2.2357a2.6072 2.6072 0 0 0 0.81454 1.8235c0.69226 0.46249 1.5051-0.21941 1.9978-1.0515a3.6203 3.6203 0 0 0 0.56094-2.3046 4.0412 4.0412 0 0 0-0.64731-1.5121z" fill="#6c63ff"/>
<path transform="translate(-185.43 -156.16)" d="m737.45 588.41a4.9838 4.9838 0 0 0-0.16092-2.0096 4.4114 4.4114 0 0 1 0.67132-2.501 8.1305 8.1305 0 0 0 1.046-2.2932 1.9183 1.9183 0 0 0-0.05019-1.123c-0.14552-0.32692-0.498-0.476-0.70018-0.21717l0.43267 0.27866a3.9401 3.9401 0 0 0-1.7559 0.085 2.1732 2.1732 0 0 0-1.3308 1.5001 9.2817 9.2817 0 0 1-0.349 1.5564c-0.25809 0.5305-0.75768 0.70694-1.0716 1.1726a2.8036 2.8036 0 0 0 0.04415 2.6634 3.1088 3.1088 0 0 0 1.7585 1.3829c0.52843 0.18966 1.2242 0.19966 1.4659-0.49502z" fill="#6c63ff"/>
<path transform="translate(-185.43 -156.16)" d="m749.73 592.12a6.0421 6.0421 0 0 0 0.761 1.3967c0.588 0.59227 1.3871 0.2283 2.1004 0.08434a3.6316 3.6316 0 0 1 3.4547 1.3857 8.7934 8.7934 0 0 0-5.0574-6.3097 14.857 14.857 0 0 0-5.2012-0.81336l-0.30206 0.07741c0.7697 2.2405 3.1867 2.1904 4.2446 4.1788z" fill="#6c63ff"/>
<path transform="translate(-185.43 -156.16)" d="M697.7157,596.7025l.00442.00976.08787-.16923Z" fill="#6c63ff"/>
<path transform="translate(-185.43 -156.16)" d="m695.85 600.31a16.555 16.555 0 0 0-1.0453 2.2962 19.986 19.986 0 0 0-0.75759 3.929c-0.09463 0.75721-0.12381 1.7243 0.35057 2.0933a0.67292 0.67292 0 0 0 0.88032-0.11956 3.4822 3.4822 0 0 0 0.63816-0.94856 21.852 21.852 0 0 0 2.1543-5.113 8.8973 8.8973 0 0 0-0.35282-5.734q-0.93376 1.7983-1.8676 3.5966z" fill="#6c63ff"/>
<path transform="translate(-185.43 -156.16)" d="m677.88 504.23a2.1212 2.1212 0 0 0 2.2861 0.44616 7.5483 7.5483 0 0 0 2.151-1.4208 5.0606 5.0606 0 0 0 1.3039-1.4225 2.8849 2.8849 0 0 0 0.26674-2.1976 2.2322 2.2322 0 0 0-1.7014-1.3459q-1.5835-0.46959-3.167-0.93912l0.76365-0.68829c-0.78568-0.42167-1.6549 0.36091-2.146 1.3298a7.1588 7.1588 0 0 0-0.65144 2.0053 5.1476 5.1476 0 0 0 0.89443 4.233z" fill="#6c63ff"/>
<path transform="translate(-185.43 -156.16)" d="m696.52 497.97a1.7439 1.7439 0 0 0 2.3768 0.19336 2.657 2.657 0 0 0 1.0512-1.8935c0.07472-0.83037-0.33586-1.7533-0.92226-1.825l0.13421-0.77746c-1.1296-0.204-2.5196-0.24486-3.125 1.1269a3.2207 3.2207 0 0 0 0.48496 3.1757z" fill="#6c63ff"/>
<path transform="translate(-185.43 -156.16)" d="m864.97 441.32h-387.32a1.0156 1.0156 0 0 1 0-2.0307h387.32a1.0156 1.0156 0 0 1 0 2.0307z" fill="#cacaca"/>
<path transform="translate(-185.43 -156.16)" d="m842.35 407.53h-26.81a2.0304 2.0304 0 0 0 0 4.06h26.81a2.0304 2.0304 0 0 0 0-4.06z" fill="#3f3d56"/>
<path transform="translate(-185.43 -156.16)" d="m842.35 415.15h-26.81a2.0304 2.0304 0 0 0 0 4.06h26.81a2.0304 2.0304 0 0 0 0-4.06z" fill="#3f3d56"/>
<path transform="translate(-185.43 -156.16)" d="m842.35 422.76h-26.81a2.0304 2.0304 0 0 0 0 4.06h26.81a2.0304 2.0304 0 0 0 0-4.06z" fill="#3f3d56"/>
<g opacity=".35">
<path transform="translate(-185.43 -156.16)" d="m875.23 564.9c6.234-2.7181-6.4085-4.3004-20.752-4.8207s-31.695-0.49146-40.861-1.9712c-8.8651-1.4311-8.2119-3.9758-8.9577-6.2813s-4.1538-4.6695-17.987-5.182c-17.238-0.63864-45.664 1.8196-58.677 0.34379-12.143-1.3772-4.925-5.6974-22.632-5.8627-10.111-0.09442-23.137 1.3299-34.388 1.6736a125.36 125.36 0 0 1-23.861-1.244c-5.4838-0.89845-9.3032-2.0375-15.475-2.8311-16.203-2.0835-47.905-1.3832-76.199 1.2871s-52.548 7.0464-66.227 11.381-17.457 8.6018-14.271 12.221c2.0346 2.3108 7.241 4.4715 19.87 5.4001 23.623 1.7368 65.68-1.2527 90.09 0.32746 13.605 0.8807 19.64 3.0642 31.577 4.259 12.824 1.2836 31.597 1.3516 50.042 1.3212 38.404-0.06341 77.79-0.458 117.95-1.1816 16.775-0.30225 34.352-0.69519 52.202-2.1355s36.056-4.2194 39.822-6.8247" fill="#fff"/>
</g>
</svg>
